<svg id="Loadershift delay" width="auto" height="100%" viewBox="0 0 238 238" fill="none" xmlns="http://www.w3.org/2000/svg">
<path opacity="0.0689655" d="M64.5285 112.939C69.1659 102.052 64.3282 89.4496 53.5973 84.4621C35.4177 76.0125 39.6915 49.0287 59.5924 46.6106C71.3393 45.1832 79.8346 34.6925 78.7884 22.9055C77.0161 2.93666 102.522 -6.85401 114.566 9.17163C121.676 18.6311 135.009 20.7428 144.694 13.9433C161.101 2.42402 182.333 19.6172 174.476 38.061C169.839 48.9478 174.677 61.5502 185.408 66.5377C203.587 74.9873 199.313 101.971 179.412 104.389C167.666 105.817 159.17 116.307 160.216 128.094C161.989 148.063 136.483 157.854 124.439 141.828C117.329 132.369 103.996 130.257 94.3114 137.057C77.904 148.576 56.6722 131.383 64.5285 112.939Z" stroke="white" stroke-width=".25"><animate attributeType="XML" attributeName="stroke-dasharray" repeatCount="indefinite" dur="8.965123019225434s" values="0,0,0,0,0,512.4386596679688; 0,0,0,85.4064432779948,256.2193298339844,170.8128865559896; 0,0,170.8128865559896,0,341.6257731119792,512.4386596679688; 0,0,341.6257731119792,0,170.8128865559896,512.4386596679688; 0,0,427.03221638997394,170.8128865559896,0,0; 0,512.4386596679688,0,170.8128865559896,0,512.4386596679688" keyTimes="0; 0.1666; 0.3333; 0.6666; 0.8333; 1"></animate></path>
<path opacity="0.206897" d="M61.0496 99.4655C67.526 90.241 65.5146 77.5417 56.5047 70.77C41.3171 59.3552 50.5958 35.1833 69.5204 36.863C80.7472 37.8594 90.7395 29.7679 92.099 18.5792C94.3907 -0.281102 119.963 -4.33142 127.971 12.8976C132.722 23.1185 144.725 27.7263 155.095 23.3093C172.574 15.8639 188.868 35.9854 177.951 51.5348C171.475 60.7593 173.486 73.4586 182.496 80.2303C197.684 91.6451 188.405 115.817 169.48 114.137C158.254 113.141 148.261 121.232 146.902 132.421C144.61 151.281 119.037 155.332 111.03 138.103C106.279 127.882 94.2756 123.274 83.9061 127.691C66.4268 135.136 50.1327 115.015 61.0496 99.4655Z" stroke="white" stroke-width=".25"><animate attributeType="XML" attributeName="stroke-dasharray" repeatCount="indefinite" dur="9.201135551540427s" values="0,0,0,0,0,486.6078796386719; 0,0,0,81.10131327311198,243.30393981933594,162.20262654622397; 0,0,162.20262654622397,0,324.40525309244794,486.6078796386719; 0,0,324.40525309244794,0,162.20262654622397,486.6078796386719; 0,0,405.5065663655599,162.20262654622397,0,0; 0,486.6078796386719,0,162.20262654622397,0,486.6078796386719" keyTimes="0; 0.1666; 0.3333; 0.6666; 0.8333; 1"></animate></path>
<path opacity="0.344828" d="M60.6366 86.2359C68.4776 78.9425 69.1169 66.7432 62.0813 58.6701C50.2875 45.1373 63.611 24.6209 80.7708 29.8908C91.0076 33.0346 101.892 27.4886 105.366 17.359C111.189 0.378927 135.618 1.65922 139.634 19.1549C142.03 29.5921 152.275 36.2455 162.785 34.189C180.401 30.7417 191.507 52.5383 178.363 64.7642C170.522 72.0576 169.883 84.2569 176.919 92.33C188.712 105.863 175.389 126.379 158.229 121.109C147.992 117.966 137.108 123.512 133.634 133.641C127.811 150.621 103.382 149.341 99.3658 131.845C96.97 121.408 86.7248 114.755 76.2155 116.811C58.5989 120.258 47.4929 98.4618 60.6366 86.2359Z" stroke="white" stroke-width=".25"><animate attributeType="XML" attributeName="stroke-dasharray" repeatCount="indefinite" dur="8.972655943378431s" values="0,0,0,0,0,460.7767333984375; 0,0,0,76.79612223307292,230.38836669921875,153.59224446614584; 0,0,153.59224446614584,0,307.1844889322917,460.7767333984375; 0,0,307.1844889322917,0,153.59224446614584,460.7767333984375; 0,0,383.98061116536456,153.59224446614584,0,0; 0,460.7767333984375,0,153.59224446614584,0,460.7767333984375" keyTimes="0; 0.1666; 0.3333; 0.6666; 0.8333; 1"></animate></path>
<path opacity="0.482759" d="M63.0257 73.9066C71.7293 68.6918 74.725 57.5116 69.7948 48.6437C61.5818 33.8708 77.8696 17.5831 92.6425 25.7961C101.51 30.7262 112.691 27.7305 117.905 19.0269C126.593 4.52777 148.842 10.4895 149.116 27.3897C149.28 37.5347 157.465 45.7191 167.61 45.8834C184.51 46.1572 190.471 68.4067 175.972 77.0939C167.269 82.3087 164.273 93.4888 169.203 102.357C177.416 117.13 161.128 133.417 146.356 125.204C137.488 120.274 126.307 123.27 121.093 131.974C112.405 146.473 90.156 140.511 89.8822 123.611C89.7179 113.466 81.5334 105.281 71.3885 105.117C54.4883 104.843 48.5265 82.5938 63.0257 73.9066Z" stroke="white" stroke-width=".25"><animate attributeType="XML" attributeName="stroke-dasharray" repeatCount="indefinite" dur="9.173533250443114s" values="0,0,0,0,0,434.9467468261719; 0,0,0,72.49112447102864,217.47337341308594,144.98224894205728; 0,0,144.98224894205728,0,289.96449788411456,434.9467468261719; 0,0,289.96449788411456,0,144.98224894205728,434.9467468261719; 0,0,362.45562235514325,144.98224894205728,0,0; 0,434.9467468261719,0,144.98224894205728,0,434.9467468261719" keyTimes="0; 0.1666; 0.3333; 0.6666; 0.8333; 1"></animate></path>
<path opacity="0.62069" d="M67.8252 63.0339C76.8909 59.9251 81.8544 50.1836 79.0408 41.022C74.3865 25.8664 92.5066 14.0991 104.459 24.5154C111.684 30.8121 122.602 30.2399 129.13 23.2224C139.927 11.6139 159.178 21.4227 156.134 36.9817C154.293 46.3873 160.248 55.5565 169.589 57.7007C185.041 61.2477 186.172 82.8238 171.175 87.9666C162.109 91.0754 157.146 100.817 159.959 109.979C164.614 125.134 146.493 136.901 134.541 126.485C127.316 120.188 116.398 120.761 109.871 127.778C99.0726 139.387 79.8218 129.578 82.8664 114.019C84.707 104.613 78.7524 95.444 69.4114 93.2998C53.9591 89.7528 52.8284 68.1767 67.8252 63.0339Z" stroke="white" stroke-width=".25"><animate attributeType="XML" attributeName="stroke-dasharray" repeatCount="indefinite" dur="9.082196252494102s" values="0,0,0,0,0,409.1166076660156; 0,0,0,68.18610127766927,204.5583038330078,136.37220255533853; 0,0,136.37220255533853,0,272.74440511067706,409.1166076660156; 0,0,272.74440511067706,0,136.37220255533853,409.1166076660156; 0,0,340.9305063883464,136.37220255533853,0,0; 0,409.1166076660156,0,136.37220255533853,0,409.1166076660156" keyTimes="0; 0.1666; 0.3333; 0.6666; 0.8333; 1"></animate></path>
<path opacity="0.758621" d="M74.5356 54.047C83.4914 52.9588 89.9681 44.9608 89.1705 35.9745C87.8616 21.2267 106.699 13.9958 115.594 25.8314C121.014 33.0432 131.179 34.6532 138.563 29.4693C150.68 20.9618 166.361 33.6597 160.559 47.2813C157.023 55.5813 160.711 65.1893 168.893 68.9917C182.319 75.2321 179.163 95.1608 164.465 96.9467C155.509 98.0349 149.032 106.033 149.83 115.019C151.139 129.767 132.302 136.998 123.407 125.162C117.986 117.951 107.821 116.341 100.438 121.524C88.3202 130.032 72.6397 117.334 78.4419 103.712C81.9773 95.4125 78.2891 85.8045 70.108 82.002C56.6815 75.7617 59.8379 55.833 74.5356 54.047Z" stroke="white" stroke-width=".25"><animate attributeType="XML" attributeName="stroke-dasharray" repeatCount="indefinite" dur="9.121789961227433s" values="0,0,0,0,0,383.285888671875; 0,0,0,63.8809814453125,191.6429443359375,127.761962890625; 0,0,127.761962890625,0,255.52392578125,383.285888671875; 0,0,255.52392578125,0,127.761962890625,383.285888671875; 0,0,319.4049072265625,127.761962890625,0,0; 0,383.285888671875,0,127.761962890625,0,383.285888671875" keyTimes="0; 0.1666; 0.3333; 0.6666; 0.8333; 1"></animate></path>
<path opacity="0.896552" d="M82.5929 47.2437C91.019 47.9915 98.5186 41.9185 99.5389 33.521C101.198 19.864 119.716 16.9311 125.515 29.4069C129.08 37.0781 138.089 40.5364 145.872 37.2213C158.529 31.8299 170.328 46.4002 162.423 57.6598C157.562 64.5831 159.071 74.1144 165.834 79.1968C176.831 87.4625 170.112 104.966 156.409 103.75C147.983 103.002 140.483 109.075 139.463 117.472C137.803 131.129 119.286 134.062 113.487 121.586C109.922 113.915 100.913 110.457 93.1299 113.772C80.4728 119.163 68.674 104.593 76.5791 93.3334C81.4399 86.41 79.9303 76.8788 73.168 71.7963C62.1704 63.5307 68.8892 46.0274 82.5929 47.2437Z" stroke="white" stroke-width=".25"><animate attributeType="XML" attributeName="stroke-dasharray" repeatCount="indefinite" dur="9.169562597638588s" values="0,0,0,0,0,357.45489501953125; 0,0,0,59.57581583658854,178.72744750976562,119.15163167317708; 0,0,119.15163167317708,0,238.30326334635416,357.45489501953125; 0,0,238.30326334635416,0,119.15163167317708,357.45489501953125; 0,0,297.8790791829427,119.15163167317708,0,0; 0,357.45489501953125,0,119.15163167317708,0,357.45489501953125" keyTimes="0; 0.1666; 0.3333; 0.6666; 0.8333; 1"></animate></path>

<setting>{"type":"delay","speed":8,"random":0.95,"rupture":27}</setting></svg>